<svg width="24" height="24" viewBox="0 0 24 24" fill="none" xmlns="http://www.w3.org/2000/svg">
<path d="M3.24 2C1.944 2 1 2.88 1 4.24V12.88C1 14.24 1.944 15.12 3.24 15.12C4.536 15.12 5.48 14.24 5.48 12.88V9.68H3.88V12.88C3.88 13.232 3.592 13.52 3.24 13.52C2.888 13.52 2.6 13.232 2.6 12.88V4.24C2.6 3.888 2.888 3.6 3.24 3.6C3.592 3.6 3.88 3.888 3.88 4.24V7.44H5.48V4.24C5.48 2.88 4.536 2 3.24 2Z" fill="#0094FF"/>
<path d="M8.3225 2C7.0265 2 6.0825 2.88 6.0825 4.24V12.88C6.0825 14.24 7.0265 15.12 8.3225 15.12C9.6185 15.12 10.5625 14.24 10.5625 12.88V4.24C10.5625 2.88 9.6185 2 8.3225 2ZM8.3225 3.6C8.6745 3.6 8.9625 3.888 8.9625 4.24V12.88C8.9625 13.232 8.6745 13.52 8.3225 13.52C7.9705 13.52 7.6825 13.232 7.6825 12.88V4.24C7.6825 3.888 7.9705 3.6 8.3225 3.6Z" fill="#0094FF"/>
<path d="M10.7802 2.16L12.2043 14.96H14.4762L15.9003 2.16H14.2683L13.7723 7.168L13.4362 12.992H13.2443L12.9082 7.168L12.3962 2.16H10.7802Z" fill="#0094FF"/>
<path d="M16.1713 2.16V14.96H17.7712V2.16H16.1713Z" fill="#0094FF"/>
<path d="M18.5662 2.16V14.96H20.8062C22.1022 14.96 23.0462 14.08 23.0462 12.72V4.4C23.0462 3.04 22.1022 2.16 20.8062 2.16H18.5662ZM20.1663 3.76H20.8062C21.1582 3.76 21.4463 4.048 21.4463 4.4V12.72C21.4463 13.072 21.1582 13.36 20.8062 13.36H20.1663V3.76Z" fill="#0094FF"/>
<path d="M8.112 18.576V19.612H9.12V21.6H8V22.72H11.388V21.6H10.38V17.68H9.176V17.862C9.176 18.422 9.036 18.576 8.364 18.576H8.112Z" fill="#0094FF"/>
<path d="M14.7838 22.832C16.0158 22.832 16.7717 22.062 16.7717 20.956V19.472C16.7717 18.366 16.0577 17.568 14.9237 17.568C13.7897 17.568 12.9637 18.198 12.9637 19.304C12.9637 20.2 13.5097 20.746 14.3217 20.746C14.9517 20.746 15.2317 20.48 15.4277 20.102H15.5957L15.5118 20.634V20.984C15.5118 21.334 15.2598 21.6 14.8118 21.6C14.4338 21.6 14.1957 21.432 14.1957 21.152H12.9917V21.292C12.9917 22.202 13.5938 22.832 14.7838 22.832ZM14.8538 19.808C14.5318 19.808 14.2517 19.654 14.2517 19.304C14.2517 18.996 14.5598 18.828 14.8678 18.828C15.1198 18.828 15.5118 18.954 15.5118 19.332C15.5118 19.668 15.2318 19.808 14.8538 19.808Z" fill="#0094FF"/>
</svg>
