<svg width="64" height="36" viewBox="0 0 64 36" fill="none" xmlns="http://www.w3.org/2000/svg">
<path d="M25.5385 32H16.9231C13.4957 32 10.2086 30.525 7.78508 27.8995C5.36153 25.274 4 21.713 4 18C4 14.287 5.36153 10.726 7.78508 8.10051C10.2086 5.475 13.4957 4 16.9231 4H25.5385M38.4615 4H47.0769C50.5043 4 53.7914 5.475 56.2149 8.10051C58.6385 10.726 60 14.287 60 18C60 21.713 58.6385 25.274 56.2149 27.8995C53.7914 30.525 50.5043 32 47.0769 32H38.4615M19.5198 18H44.7494" stroke="#0094FF" stroke-width="6" stroke-linecap="round" stroke-linejoin="round"/>
</svg>
