<svg width="48" height="68" viewBox="0 0 48 68" fill="none" xmlns="http://www.w3.org/2000/svg">
<mask id="path-1-inside-1_2_137" fill="white">
<path fill-rule="evenodd" clip-rule="evenodd" d="M31.7049 21.0052C34.1283 18.8062 35.6571 15.5869 35.6571 12C35.6571 5.37258 30.438 0 24 0C17.5619 0 12.3428 5.37258 12.3428 12C12.3428 15.5869 13.8716 18.8062 16.295 21.0052C6.8197 22.2154 0 26.2495 0 36.6583C0 49.7237 10.7452 67.8857 24 67.8857C37.2548 67.8857 48 49.7237 48 36.6583C48 26.2494 41.1803 22.2154 31.7049 21.0052Z"/>
</mask>
<path d="M31.7049 21.0052L27.6731 16.5618L18.0342 25.3079L30.9448 26.9569L31.7049 21.0052ZM16.295 21.0052L17.0552 26.9569L29.9658 25.3079L20.3269 16.5618L16.295 21.0052ZM29.6571 12C29.6571 13.8551 28.8726 15.4733 27.6731 16.5618L35.7368 25.4486C39.3841 22.1391 41.6571 17.3188 41.6571 12H29.6571ZM24 6C26.9616 6 29.6571 8.52115 29.6571 12H41.6571C41.6571 2.22401 33.9145 -6 24 -6V6ZM18.3428 12C18.3428 8.52115 21.0384 6 24 6V-6C14.0854 -6 6.34283 2.22401 6.34283 12H18.3428ZM20.3269 16.5618C19.1274 15.4733 18.3428 13.8551 18.3428 12H6.34283C6.34283 17.3188 8.61587 22.1392 12.2631 25.4486L20.3269 16.5618ZM6 36.6583C6 32.9169 7.14325 31.0925 8.4847 29.95C10.0941 28.5793 12.8241 27.4973 17.0552 26.9569L15.5349 15.0536C10.2907 15.7233 4.87315 17.2634 0.70383 20.8145C-3.7334 24.5937 -6 29.9908 -6 36.6583H6ZM24 61.8857C20.1914 61.8857 15.7695 59.1674 11.9368 53.7193C8.18467 48.3858 6 41.7618 6 36.6583H-6C-6 44.6202 -2.81209 53.61 2.12212 60.6238C6.9757 67.5231 14.5538 73.8857 24 73.8857V61.8857ZM42 36.6583C42 41.7618 39.8153 48.3858 36.0632 53.7193C32.2305 59.1674 27.8086 61.8857 24 61.8857V73.8857C33.4462 73.8857 41.0243 67.5231 45.8779 60.6238C50.8121 53.61 54 44.6202 54 36.6583H42ZM30.9448 26.9569C35.1759 27.4972 37.9059 28.5793 39.5153 29.95C40.8567 31.0925 42 32.9169 42 36.6583H54C54 29.9908 51.7334 24.5937 47.2962 20.8145C43.1268 17.2634 37.7093 15.7233 32.4651 15.0535L30.9448 26.9569Z" fill="#0094FF" mask="url(#path-1-inside-1_2_137)"/>
</svg>
